<svg width="16" height="16" viewBox="0 0 16 16" fill="none" xmlns="http://www.w3.org/2000/svg">
<g clip-path="url(#clip0_2410_38)">
<g clip-path="url(#clip1_2410_38)">
<path d="M7.33388 9.29149V9.95815H8.66721V9.29149H7.33388ZM9.91026 6.35838H10.5769H9.91026ZM5.42415 6.35838C5.42415 6.72657 5.72263 7.02504 6.09082 7.02504C6.45901 7.02504 6.75749 6.72657 6.75749 6.35838H5.42415ZM8.00054 9.29149H8.66721C8.66721 8.95214 8.87562 8.71663 9.38734 8.28138C9.609 8.09284 9.90559 7.84847 10.134 7.56075C10.3777 7.25382 10.5769 6.85973 10.5769 6.35838H9.91026H9.2436C9.2436 6.47714 9.20415 6.58761 9.08974 6.73172C8.96008 6.89504 8.77924 7.04819 8.52347 7.26575C8.08033 7.64267 7.33388 8.2536 7.33388 9.29149H8.00054ZM9.91026 6.35838H10.5769C10.5769 5.54957 10.2597 4.8966 9.75092 4.45419C9.25547 4.02338 8.61611 3.82357 8.00054 3.82357C7.38498 3.82357 6.74561 4.02338 6.25016 4.45419C5.74137 4.8966 5.42415 5.54957 5.42415 6.35838H6.09082H6.75749C6.75749 5.92176 6.9177 5.64065 7.12505 5.46035C7.34575 5.26844 7.66125 5.1569 8.00054 5.1569C8.33984 5.1569 8.65533 5.26844 8.87603 5.46035C9.08339 5.64065 9.2436 5.92176 9.2436 6.35838H9.91026Z" fill="#999999"/>
<rect x="7.23145" y="10.6758" width="1.53776" height="1.53776" rx="0.76888" fill="#999999"/>
</g>
<circle cx="8.0013" cy="7.99984" r="6.44466" stroke="#999999" stroke-width="1.33333"/>
</g>
<defs>
<clipPath id="clip0_2410_38">
<rect width="16" height="16" fill="white"/>
</clipPath>
<clipPath id="clip1_2410_38">
<rect width="9.16667" height="9.16667" fill="white" transform="translate(3.41699 3.4165)"/>
</clipPath>
</defs>
</svg>
