<svg width="44" height="20" viewBox="0 0 44 20" fill="none" xmlns="http://www.w3.org/2000/svg">
<rect width="44" height="20" rx="10" fill="#FF4805"/>
<path d="M9.09082 15.4346L10.3418 10C10.6471 8.67383 11.112 7.6097 11.7363 6.80762C12.8301 5.40397 14.0537 4.70215 15.4072 4.70215C16.1729 4.70215 16.7653 4.91178 17.1846 5.33105C17.5309 5.67741 17.7041 6.12174 17.7041 6.66406C17.7041 6.87826 17.6768 7.11068 17.6221 7.36133C17.4535 8.14062 16.9567 8.79232 16.1318 9.31641C16.3415 9.41211 16.5306 9.55566 16.6992 9.74707C17.0775 10.1709 17.2666 10.6745 17.2666 11.2578C17.2666 11.4902 17.237 11.7386 17.1777 12.0029C16.959 12.9144 16.4964 13.6549 15.79 14.2246C15.0153 14.849 14.0833 15.1611 12.9941 15.1611H11.6748L11.6885 15.0928L12.4541 13.999H13.2607C13.9261 13.999 14.5208 13.7757 15.0449 13.3291C15.4186 13.0101 15.6693 12.5817 15.7969 12.0439C15.847 11.8343 15.8721 11.6383 15.8721 11.4561C15.8721 11.1598 15.8037 10.9046 15.667 10.6904C15.3708 10.2256 14.8786 9.99316 14.1904 9.99316H12.8711L12.8848 9.9248L13.6504 8.83105H14.457C14.9173 8.83105 15.3184 8.68294 15.6602 8.38672C15.9701 8.11784 16.1751 7.76465 16.2754 7.32715C16.3073 7.18587 16.3232 7.05143 16.3232 6.92383C16.3232 6.67773 16.2572 6.46126 16.125 6.27441C15.9245 6.00098 15.5964 5.86426 15.1406 5.86426C14.293 5.86426 13.5091 6.35645 12.7891 7.34082C12.3379 7.95605 11.9779 8.84245 11.709 10L10.6016 14.8193L9.15918 15.4346H9.09082Z" fill="white"/>
<path d="M23.437 12.584C23.2547 13.0215 23.0382 13.3997 22.7876 13.7188C21.9673 14.7715 21.0467 15.2979 20.0259 15.2979C19.0324 15.2979 18.3602 14.7715 18.0093 13.7188C17.9181 13.4453 17.8725 13.1309 17.8725 12.7754C17.8725 12.3561 17.9318 11.8981 18.0503 11.4014C18.2599 10.4717 18.6017 9.69922 19.0757 9.08398C19.8869 8.03125 20.8052 7.50488 21.8305 7.50488C22.6098 7.50488 23.1841 7.7487 23.5532 8.23633C23.8403 8.61458 23.9839 9.02018 23.9839 9.45312C23.9839 9.61719 23.9634 9.78353 23.9223 9.95215C23.7537 10.6494 23.3755 11.2578 22.7876 11.7773C22.2042 12.2923 21.4842 12.5498 20.6274 12.5498H20.1011L20.1216 12.4814L20.8804 11.3877C21.3725 11.3877 21.7554 11.2555 22.0288 10.9912C22.2977 10.7314 22.4868 10.3805 22.5962 9.93848C22.6235 9.8291 22.6372 9.72428 22.6372 9.62402C22.6372 9.40072 22.5757 9.20931 22.4526 9.0498C22.2703 8.7946 21.9718 8.66699 21.5571 8.66699C21.0011 8.66699 20.5226 8.96777 20.1216 9.56934C19.8299 10.0068 19.5952 10.6175 19.4175 11.4014C19.2899 11.9665 19.2261 12.4245 19.2261 12.7754C19.2261 12.9531 19.242 13.1058 19.2739 13.2334C19.4471 13.835 19.7889 14.1357 20.2993 14.1357C20.8188 14.1357 21.2973 13.835 21.7348 13.2334L23.3686 12.584H23.437Z" fill="white"/>
<path d="M26.4287 15.4346C25.4762 15.4346 25 15.0928 25 14.4092C25 14.277 25.0182 14.1312 25.0546 13.9717L26.2509 8.80371H24.4941L24.5078 8.73535L25.2734 7.6416H26.5175L27.0849 5.18066L28.5273 4.56543H28.5957L27.8847 7.6416H29.6416L29.6279 7.70996L28.8623 8.80371H27.6181L26.4218 13.9717C26.3763 14.1722 26.4629 14.2725 26.6816 14.2725H27.208L27.1943 14.3408L26.4287 15.4346Z" fill="white"/>
<path d="M30.9379 15.2979C29.9262 15.2979 29.254 14.7715 28.9213 13.7188C28.8302 13.4316 28.7846 13.1081 28.7846 12.748C28.7846 12.3424 28.8416 11.8936 28.9555 11.4014C29.1834 10.4398 29.5252 9.66732 29.9809 9.08398C30.8012 8.03125 31.7218 7.50488 32.7426 7.50488C33.7726 7.50488 34.4448 8.03125 34.7592 9.08398C34.8458 9.37565 34.8891 9.69922 34.8891 10.0547C34.8891 10.4603 34.8321 10.9092 34.7182 11.4014L34.1235 13.9717C34.0779 14.1722 34.1645 14.2725 34.3832 14.2725H34.9096L34.8959 14.3408L34.1303 15.4346C33.1778 15.4346 32.7016 15.0928 32.7016 14.4092C32.7016 14.277 32.7198 14.1312 32.7563 13.9717L33.351 11.4014C33.4786 10.8363 33.5424 10.3783 33.5424 10.0273C33.5424 9.85417 33.5265 9.7015 33.4946 9.56934C33.3259 8.96777 32.9842 8.66699 32.4692 8.66699C31.9542 8.66699 31.4757 8.96777 31.0336 9.56934C30.7556 9.94759 30.5187 10.5583 30.3227 11.4014C30.1951 11.9528 30.1313 12.404 30.1313 12.7549C30.1313 12.9417 30.1495 13.1012 30.186 13.2334C30.35 13.8304 30.6873 14.1312 31.1977 14.1357H31.7241L31.7036 14.2041L30.9379 15.2979Z" fill="white"/>
</svg>
