<svg width="79" height="22" viewBox="0 0 79 22" fill="none" xmlns="http://www.w3.org/2000/svg">
<g clip-path="url(#clip0_625_132)">
<path d="M28.1911 13.5793C28.1911 8.56519 31.2788 5.19474 36.0758 5.19474C40.5488 5.19474 43.7824 8.08834 43.7824 13.4601V14.7425H33.0737V14.8328C33.0737 16.9209 34.3379 18.2647 36.3394 18.2647C37.6926 18.2647 38.6934 17.6686 39.1065 16.7113H43.7255C43.1378 19.8759 40.4028 21.9025 36.2539 21.9025C31.2538 21.9025 28.1947 18.7379 28.1947 13.5757L28.1911 13.5793ZM39.1635 11.7875C39.135 10.0571 37.8992 8.83251 36.1933 8.83251C34.4875 8.83251 33.1484 10.1005 33.0737 11.7875H39.1635Z" fill="white"/>
<path d="M45.182 13.5179C45.182 7.81741 48.2127 5.19113 51.5674 5.19113C54.128 5.19113 55.4813 6.71199 56.0974 8.17504H56.2149V0H61.158V21.6062H56.2434V18.98H56.0974C55.4492 20.443 54.039 21.8447 51.5959 21.8447C48.0346 21.8447 45.182 19.0089 45.182 13.5179ZM56.3004 13.489C56.3004 10.8049 55.2106 9.13235 53.2697 9.13235C51.3288 9.13235 50.2675 10.8627 50.2675 13.489C50.2675 16.1153 51.3573 17.9071 53.2697 17.9071C55.1821 17.9071 56.3004 16.1767 56.3004 13.489Z" fill="white"/>
<path d="M74.0569 5.40066H79V21.6062H74.292V18.6223H74.1139C73.4088 20.5622 71.6424 21.8158 69.2314 21.8158C65.9657 21.8158 63.7577 19.4279 63.7577 15.7287V5.40066H68.7292V14.7714C68.7292 16.5307 69.7015 17.6361 71.2898 17.6361C72.8781 17.6361 74.0569 16.5632 74.0569 14.6233V5.40066Z" fill="white"/>
<path d="M25.7481 6.5711H22.5287V0.310673H26.8557L25.7481 6.5711Z" fill="white"/>
<path d="M10.6554 0.393761H0.726502L0 4.8335H2.85971V22.0036H10.6554C17.1583 22.0036 21.1576 17.9432 21.1576 11.1987C21.1576 4.45419 17.1547 0.393761 10.6554 0.393761ZM10.4773 17.6434H7.85976V4.72151H10.4203C14.1276 4.72151 16.1291 6.5133 16.1291 11.1987C16.1291 15.8841 14.1276 17.6434 10.4809 17.6434H10.4773Z" fill="white"/>
</g>
<defs>
<clipPath id="clip0_625_132">
<rect width="79" height="22" fill="white"/>
</clipPath>
</defs>
</svg>
